<?xml version="1.0" standalone="no"?><!DOCTYPE svg PUBLIC "-//W3C//DTD SVG 1.1//EN" "http://www.w3.org/Graphics/SVG/1.1/DTD/svg11.dtd"><svg t="1715252753021" class="icon" viewBox="0 0 1024 1024" version="1.1" xmlns="http://www.w3.org/2000/svg" p-id="34559" xmlns:xlink="http://www.w3.org/1999/xlink" width="200" height="200"><path d="M904.19 353.33H582.85c-58.68 0-106.42 47.74-106.42 106.42v321.33c0 58.68 47.74 106.42 106.42 106.42h321.34c58.68 0 106.43-47.74 106.43-106.42V459.75c0-58.68-47.75-106.42-106.43-106.42z m40.47 427.75c0 22.32-18.15 40.46-40.47 40.46H582.85c-22.32 0-40.46-18.14-40.46-40.46V459.75c0-22.32 18.14-40.47 40.46-40.47h321.34c22.32 0 40.47 18.15 40.47 40.47v321.33z" p-id="34560"></path><path d="M432.996 848.323h-197.41c-58.052-0.064-114.736-23.736-155.541-64.961-41.659-41.175-64.735-96.426-64.735-155.315 0.032-58.02 23.688-114.703 64.912-155.541 35.234-35.846 82.819-58.455 132.932-63.608 7.118-68.777 37.07-131.789 86.136-180.743 56.265-56.313 131.338-87.344 211.371-87.344 46.925-0.612 92.433 10.789 133.705 31.514 39.839 20.258 75.251 49.485 102.546 84.607 11.176 14.38 8.583 35.105-5.797 46.281-14.38 11.127-35.089 8.583-46.281-5.797-21.385-27.504-49.115-50.403-80.21-66.233-31.949-16.023-68.036-23.06-103.882-24.413-62.481 0-120.984 24.171-164.817 68.036-44.123 44.026-68.407 102.529-68.455 164.785l-0.016 32.963-41.917 1.176h-0.386c-40.484 0-79.872 16.506-108.214 45.331-29.099 28.841-45.637 68.471-45.669 109.003 0 41.112 16.119 79.695 45.395 108.649 28.777 29.066 68.407 45.621 108.955 45.653h197.378c18.213 0 32.979 14.767 32.979 32.979s-14.766 32.978-32.979 32.978z" p-id="34561"></path><path d="M743.24 527.98c0 18.21-14.77 32.98-32.98 32.98h-27.71v27.7c0 18.21-14.77 32.98-32.98 32.98-18.21 0-32.98-14.77-32.98-32.98v-27.7h-27.7c-18.21 0-32.98-14.77-32.98-32.98S570.68 495 588.89 495h27.7v-27.71c0-18.21 14.77-32.98 32.98-32.98 18.21 0 32.98 14.77 32.98 32.98V495h27.71c18.21 0 32.98 14.77 32.98 32.98zM902.905 560.96h-121.37c-18.213 0-32.979-14.767-32.979-32.979 0-18.213 14.767-32.979 32.979-32.979h121.37c18.213 0 32.979 14.767 32.979 32.979 0.001 18.213-14.766 32.979-32.979 32.979zM902.342 700.463H780.955c-18.213 0-32.979-14.767-32.979-32.979s14.767-32.979 32.979-32.979h121.386c18.213 0 32.979 14.767 32.979 32.979s-14.765 32.979-32.978 32.979zM902.342 791.334H780.955c-18.213 0-32.979-14.767-32.979-32.979 0-18.213 14.767-32.979 32.979-32.979h121.386c18.213 0 32.979 14.767 32.979 32.979 0.001 18.212-14.765 32.979-32.978 32.979zM715.8 735.04c12.88 12.88 12.88 33.75 0 46.63-6.44 6.44-14.88 9.66-23.32 9.66a32.87 32.87 0 0 1-23.31-9.66l-19.6-19.6-19.6 19.6c-6.44 6.44-14.88 9.66-23.32 9.66a32.87 32.87 0 0 1-23.31-9.66c-12.89-12.88-12.89-33.75 0-46.63l19.6-19.6-19.6-19.6c-12.89-12.88-12.89-33.75 0-46.63 12.88-12.89 33.75-12.89 46.63 0l19.6 19.6 19.6-19.6c12.88-12.89 33.75-12.89 46.63 0 12.88 12.88 12.88 33.75 0 46.63l-19.6 19.6 19.6 19.6z" p-id="34562"></path></svg>